<svg width="24" height="24" viewBox="0 0 24 24" fill="none" xmlns="http://www.w3.org/2000/svg">
<rect opacity="0.1" width="24" height="24" rx="3" fill="#15A2AB"/>
<path fill-rule="evenodd" clip-rule="evenodd" d="M5 6.76768C5 6.18543 5.39511 5.67743 5.95944 5.53411L11.3734 4.15913C11.7846 4.0547 12.2154 4.0547 12.6266 4.15913L18.0406 5.53411C18.6049 5.67743 19 6.18543 19 6.76768V11.7582C19 14.6333 17.3852 17.2647 14.8219 18.5667L12.9057 19.5399C12.3365 19.8291 11.6635 19.8291 11.0943 19.5399L9.17812 18.5667C6.61479 17.2647 5 14.6333 5 11.7582V6.76768Z" stroke="#15A2AB" stroke-width="1.5"/>
<rect x="9" y="11" width="6" height="4" rx="1" stroke="#15A2AB" stroke-width="1.5"/>
<path d="M10.6665 11C10.6665 10.8702 10.6665 10.0597 10.6665 9.43403C10.6665 8.95135 10.8296 8.45927 11.2489 8.22011C11.4627 8.09811 11.7213 8 11.9998 8C12.2784 8 12.5369 8.09811 12.7508 8.22011C13.1701 8.45927 13.3332 8.95164 13.3332 9.43432V11" stroke="#15A2AB" stroke-width="1.5"/>
</svg>
