<svg width="16" height="18" viewBox="0 0 16 18" fill="none" xmlns="http://www.w3.org/2000/svg">
<path fill-rule="evenodd" clip-rule="evenodd" d="M4.87662 11.1747C5.38649 9.8636 6.64893 9 8.05566 9V9C9.4624 9 10.7248 9.8636 11.2347 11.1747L11.5313 11.9372C11.543 11.9674 11.5207 12 11.4883 12H4.62301C4.59061 12 4.56833 11.9674 4.58007 11.9372L4.87662 11.1747Z" stroke="#15A2AB" stroke-width="1.5"/>
<path fill-rule="evenodd" clip-rule="evenodd" d="M8.05566 7C8.88409 7 9.55566 6.32843 9.55566 5.5C9.55566 4.67157 8.88409 4 8.05566 4C7.22724 4 6.55566 4.67157 6.55566 5.5C6.55566 6.32843 7.22724 7 8.05566 7Z" stroke="#15A2AB" stroke-width="1.5"/>
<path fill-rule="evenodd" clip-rule="evenodd" d="M1 3.76768C1 3.18543 1.39511 2.67743 1.95944 2.53411L7.37343 1.15913C7.78462 1.0547 8.21538 1.0547 8.62657 1.15913L14.0406 2.53411C14.6049 2.67743 15 3.18543 15 3.76768V8.75824C15 11.6333 13.3852 14.2647 10.8219 15.5667L8.90573 16.5399C8.33652 16.8291 7.66348 16.8291 7.09427 16.5399L5.17812 15.5667C2.61479 14.2647 1 11.6333 1 8.75824V3.76768Z" stroke="#15A2AB" stroke-width="1.5"/>
</svg>
